# xmcd
#
# Track frame offsets:
# 150
# 22265
# 37473
# 49140
# 73828
# 90715
# 109548
# 122045
# 137225
# 153073
# 169648
# 184168
#
# Disc length: 2690 seconds
#
#
# Revision: 2
# Processed by: cddbd v1.4PL0 Copyright (c) Steve Scherf et al.
# Submitted via: FreeRIP 2.51 
#
DISCID=aa0a800c
DTITLE=Johnnie Johnson - Johnnie B. Bad
DYEAR=1990
DGENRE=Blues
TTITLE0=Tanqueray
TTITLE1=Hush Oh Hush
TTITLE2=Johnnie B. Bad
TTITLE3=Creek Hud
TTITLE4=Fault Line Tremor
TTITLE5=Stepped In What!?
TTITLE6=Can You Stand It
TTITLE7=Key To The Highway
TTITLE8=Blues #572
TTITLE9=Baby What's Wrong
TTITLE10=Cow Cow Blues
TTITLE11=Movin' Out
EXTD=
EXTT0=
EXTT1=
EXTT2=
EXTT3=
EXTT4=
EXTT5=
EXTT6=
EXTT7=
EXTT8=
EXTT9=
EXTT10=
EXTT11=
PLAYORDER=
